<svg width="120" height="107" viewBox="0 0 120 107" fill="none" xmlns="http://www.w3.org/2000/svg">
<path d="M117.388 17.2537C116.012 10.7223 112.994 5.19396 107.824 3.45521C98.4529 0.289792 60 0 60 0C60 0 21.5471 0.289792 12.1765 3.45521C7.00588 5.19396 4.00588 10.7223 2.61176 17.2537C0.105882 29.0906 0 53.5 0 53.5C0 53.5 0.105882 77.9094 2.61176 89.7462C3.98824 96.2777 7.00588 101.806 12.1765 103.545C21.5471 106.71 60 107 60 107C60 107 98.4529 106.71 107.824 103.545C112.994 101.806 116.012 96.2777 117.388 89.7462C119.894 77.9094 120 53.5 120 53.5C120 53.5 119.894 29.0906 117.388 17.2537Z" fill="#212121" fill-opacity="0.8"/>
<path d="M79.4117 53.5006L47.647 31.209V75.7923" fill="white"/>
</svg>
